# xmcd
#
# Track frame offsets:
#	150
#	12298
#	26734
#	39544
#	53650
#	71155
#	86574
#	102333
#	115110
#	130901
#
# Disc length: 1939 seconds
#
# Revision: 2
# Processed by: cddbd v1.5.2PL0 Copyright (c) Steve Scherf et al.
# Submitted via: audiograbber 1.83.01
#
DISCID=8107910a
DTITLE=Damian Marshall - Call It a Day Tonight
DYEAR=2000
DGENRE=Country
TTITLE0=Look Out Below
TTITLE1=Still Stirrin' Ashes
TTITLE2=Call It a Day Tonight
TTITLE3=Honey, Can I Hold You?
TTITLE4=Lyin' All Day, Cryin' All Night
TTITLE5=New Hank Williams Song
TTITLE6=Let the Memories Lie
TTITLE7=Half as Much
TTITLE8=Can't Kiss a Memory
TTITLE9=I'll Go Stepping Too
EXTD=
EXTT0=
EXTT1=
EXTT2=
EXTT3=
EXTT4=
EXTT5=
EXTT6=
EXTT7=
EXTT8=
EXTT9=
PLAYORDER=
